HIERARCHY
ROOT Hips
{
	OFFSET -0.179506 -22.333345 2.821913
	CHANNELS 6 Xposition Yposition Zposition Zrotation Yrotation Xrotation 
	JOINT LeftUpLeg
	{
		OFFSET 6.951974 -9.140623 -0.681533
		CHANNELS 3 Zrotation Yrotation Xrotation
		JOINT LeftLeg
		{
			OFFSET 3.427654 -37.519855 -0.449580
			CHANNELS 3 Zrotation Yrotation Xrotation
			JOINT LeftFoot
			{
				OFFSET -1.359570 -39.796059 -4.369333
				CHANNELS 3 Zrotation Yrotation Xrotation
				JOINT LeftToe
				{
					OFFSET 2.635814 -5.579078 11.928840
					CHANNELS 3 Zrotation Yrotation Xrotation
					End Site
					{
						OFFSET 0.000000 0.000000 0.000000
					}
				}
			}
		}
	}
	JOINT RightUpLeg
	{
		OFFSET -6.767048 -9.052170 -0.431982
		CHANNELS 3 Zrotation Yrotation Xrotation
		JOINT RightLeg
		{
			OFFSET -3.829005 -38.256897 -0.885003
			CHANNELS 3 Zrotation Yrotation Xrotation
			JOINT RightFoot
			{
				OFFSET 1.577377 -39.841461 -4.231180
				CHANNELS 3 Zrotation Yrotation Xrotation
				JOINT RightToe
				{
					OFFSET -2.537174 -4.814398 12.334795
					CHANNELS 3 Zrotation Yrotation Xrotation
					End Site
					{
						OFFSET 0.000000 0.000000 0.000000
					}
				}
			}
		}
	}
	JOINT Spine
	{
		OFFSET -0.253288 10.896323 -2.669631
		CHANNELS 3 Zrotation Yrotation Xrotation
		JOINT Spine1
		{
			OFFSET 0.548704 13.518043 0.109247
			CHANNELS 3 Zrotation Yrotation Xrotation
			JOINT Spine2
			{
				OFFSET 0.145701 5.292222 2.542457
				CHANNELS 3 Zrotation Yrotation Xrotation
				JOINT Neck
				{
					OFFSET -0.277840 21.387037 -4.285703
					CHANNELS 3 Zrotation Yrotation Xrotation
					JOINT Head
					{
						OFFSET 0.515184 6.496960 5.134897
						CHANNELS 3 Zrotation Yrotation Xrotation
						End Site
						{
							OFFSET 0.000000 0.000000 0.000000
						}
					}
				}
				JOINT LeftShoulder
				{
					OFFSET 7.884473 12.174932 -3.408961
					CHANNELS 3 Zrotation Yrotation Xrotation
					JOINT LeftArm
					{
						OFFSET 9.097692 3.046888 -0.886815
						CHANNELS 3 Zrotation Yrotation Xrotation
						JOINT LeftForeArm
						{
							OFFSET 25.961220 -1.277207 -2.745643
							CHANNELS 3 Zrotation Yrotation Xrotation
							JOINT LeftHand
							{
								OFFSET 24.923361 0.898606 -0.117091
								CHANNELS 3 Zrotation Yrotation Xrotation
								End Site
								{
									OFFSET 0.000000 0.000000 0.000000
								}
							}
						}
					}
				}
				JOINT RightShoulder
				{
					OFFSET -8.175920 11.883285 -3.861528
					CHANNELS 3 Zrotation Yrotation Xrotation
					JOINT RightArm
					{
						OFFSET -9.601238 3.255117 -0.914307
						CHANNELS 3 Zrotation Yrotation Xrotation
						JOINT RightForeArm
						{
							OFFSET -25.374195 -1.332924 -2.140099
							CHANNELS 3 Zrotation Yrotation Xrotation
							JOINT RightHand
							{
								OFFSET -25.529810 0.777228 -0.555919
								CHANNELS 3 Zrotation Yrotation Xrotation
								End Site
								{
									OFFSET 0.000000 0.000000 0.000000
								}
							}
						}
					}
				}
			}
		}
	}
}
MOTION
Frames: 17
Frame Time: 0.033333
-25.924343 23.639534 95.491631 175.778060 -0.877534 90.963515 -4.560697 -2.949231 3.967226 4.328325 -9.156605 -7.109393 2.600716 12.744861 -0.174740 nan nan nan -0.754008 -0.037157 1.325674 0.996364 1.534957 -5.562248 7.035916 -7.931988 2.372909 nan nan nan -1.024369 2.331659 2.187169 2.819069 -3.051904 1.084816 -0.491558 0.520009 4.726338 -9.285729 -2.078593 37.574472 5.504744 3.851123 7.387233 -17.131323 2.168950 -2.904632 -67.066579 -8.250670 22.351849 4.997672 -16.424349 -2.017347 -5.362138 -22.193947 -28.567686 15.191562 -1.039411 -7.497933 65.219919 5.103706 19.003720 -5.895900 24.023560 8.114487 10.577173 7.346503 -1.922926 
-25.924025 23.625622 95.477203 175.792719 -0.873984 90.967638 -4.539822 -2.956369 3.932104 4.293357 -9.178685 -7.131074 2.658637 12.770773 -0.042990 nan nan nan -0.733315 -0.026280 1.321274 0.975284 1.566987 -5.596302 7.102862 -7.948835 2.427585 nan nan nan -0.942318 2.317881 2.141274 2.835040 -3.037350 1.156741 -0.500209 0.307738 4.753171 -9.465266 -1.851052 37.755526 5.366860 3.848445 7.453865 -17.176644 2.352758 -3.001104 -66.951939 -8.074450 22.410407 4.741647 -16.688894 -1.748304 -4.723932 -22.009173 -29.132463 14.844407 -0.962490 -7.311613 65.558622 5.256247 19.252757 -5.885855 23.930237 7.787481 9.828074 7.419373 -3.062906 
-25.922409 23.613356 95.472603 175.801220 -0.871686 90.960943 -4.525237 -2.984096 3.895196 4.248820 -9.199326 -7.096875 2.678433 12.836479 -0.008841 nan nan nan -0.731175 -0.026591 1.333536 0.962812 1.632450 -5.640445 7.146477 -7.955494 2.492483 nan nan nan -0.971012 2.350089 2.156986 2.859106 -3.021122 1.141667 -0.504084 0.277923 4.814839 -9.500723 -1.838962 37.931843 5.403649 3.851525 7.578075 -17.081189 2.385542 -2.986429 -67.018358 -8.039570 22.554406 4.510356 -16.773703 -1.757150 -3.803221 -21.762749 -29.808589 14.777681 -0.995682 -7.324678 65.581086 5.213854 19.372621 -5.668651 23.899701 7.628792 9.101336 7.527877 -3.910409 
-25.914507 23.594194 95.472343 175.826298 -0.836739 91.063683 -4.466135 -3.031256 3.705248 4.223408 -9.201028 -6.994849 2.682402 12.852994 -0.019374 nan nan nan -0.673744 -0.013375 1.210053 0.930601 1.644975 -5.637214 7.185695 -7.912582 2.584899 nan nan nan -0.995929 2.399300 2.046963 2.903520 -3.042220 1.165458 -0.505899 0.272735 4.790714 -9.546972 -1.836856 38.146639 5.439415 3.815278 7.833803 -17.007677 2.354337 -2.897743 -67.098319 -8.003427 22.536559 4.452713 -16.759521 -1.839489 -3.296768 -21.689442 -30.073895 14.842744 -1.006075 -7.269519 65.477070 5.186745 19.297200 -5.597617 23.815206 7.746511 8.768253 7.650747 -3.769385 
-25.902533 23.555212 95.484993 175.844877 -0.781849 91.325747 -4.364531 -3.129056 3.321175 4.169642 -9.125217 -6.858208 2.706209 12.817965 -0.053409 nan nan nan -0.570579 0.037825 0.848095 0.888013 1.519733 -5.543336 7.199140 -7.831061 2.598868 nan nan nan -1.067450 2.455603 1.769740 2.985508 -3.062132 1.193414 -0.477440 0.271958 4.681538 -9.576183 -1.859946 38.331280 5.438309 3.763535 8.345526 -16.959276 2.340360 -2.740616 -67.221284 -7.973970 22.431618 4.623960 -16.680277 -2.012384 -3.681304 -21.819785 -29.802550 15.000990 -1.084038 -7.180091 65.290747 5.144092 19.151856 -5.712655 23.767311 8.139918 9.304015 7.639530 -2.672977 
-25.913681 23.490322 95.513939 175.851867 -0.796772 91.629804 -4.375767 -3.364471 2.881456 4.132691 -8.955999 -6.704522 2.732841 12.848091 -0.061307 nan nan nan -0.567500 0.080473 0.414985 0.870280 1.347131 -5.460190 7.202263 -7.760271 2.585052 nan nan nan -1.267285 2.545137 1.531011 3.061243 -3.086047 1.186663 -0.455110 0.409100 4.494418 -9.510954 -2.012723 38.540682 5.594883 3.818206 8.913151 -16.741948 2.304701 -2.469538 -67.494590 -8.124905 22.503444 4.806427 -16.499147 -2.311801 -3.875203 -21.837493 -29.574217 15.256952 -1.362978 -7.266335 65.058524 4.972438 19.046876 -5.755308 23.697656 8.398926 9.889614 7.558443 -1.667662 
-25.933355 23.420782 95.561844 175.888788 -0.897655 91.860970 -4.492392 -3.657510 2.524232 4.102409 -8.735914 -6.541458 2.777051 12.896233 -0.074850 nan nan nan -0.694749 0.102932 0.062634 0.912778 1.184413 -5.342114 7.171265 -7.706709 2.517225 nan nan nan -1.581690 2.627482 1.490403 3.069955 -3.102865 1.021170 -0.459781 0.706699 4.357804 -9.310480 -2.441150 38.803030 5.900275 3.895614 9.440537 -16.368343 2.247988 -2.147768 -67.832713 -8.401734 22.807771 4.995157 -16.269634 -2.552228 -3.942594 -21.811707 -29.510435 15.673323 -1.777507 -7.562896 64.749465 4.588637 19.049320 -5.714378 23.685066 8.408853 10.417651 7.487382 -1.395653 
-25.942307 23.377129 95.589348 175.898626 -0.944578 91.930846 -4.543702 -3.775098 2.398098 4.095349 -8.629567 -6.469968 2.850038 12.884278 -0.087263 nan nan nan -0.756023 0.135588 -0.079647 0.943362 1.112372 -5.253621 7.109175 -7.667963 2.460024 nan nan nan -1.685077 2.613977 1.441295 3.067591 -3.141242 1.143423 -0.496743 0.820490 4.157451 -9.206848 -2.578677 38.929975 5.879553 3.846647 9.961365 -16.146079 2.304037 -1.952066 -68.003414 -8.478566 22.921817 5.138264 -16.272456 -2.650836 -4.201996 -21.789389 -29.458221 15.775410 -1.889455 -7.509409 64.715193 4.527055 19.159132 -5.807941 23.673875 8.267714 10.646011 7.495436 -1.531806 
-25.949724 23.366879 95.609955 175.892296 -0.955016 91.937412 -4.581760 -3.802879 2.407223 4.160668 -8.646903 -6.506231 2.860391 12.833141 -0.052882 nan nan nan -0.778492 0.153874 -0.097263 0.969440 1.109996 -5.242360 7.149095 -7.657493 2.479051 nan nan nan -1.745421 2.615552 1.368081 3.077746 -3.149424 1.248870 -0.515215 0.884347 4.094748 -9.156834 -2.645550 39.042981 5.910981 3.798096 10.437648 -16.001335 2.303821 -1.784501 -68.159230 -8.575012 22.950087 5.254026 -16.184092 -2.742820 -4.356485 -21.776784 -29.461144 15.868530 -1.977851 -7.439974 64.662555 4.509909 19.167681 -5.895017 23.683575 8.269597 10.871836 7.402210 -1.477710 
-25.946287 23.359415 95.618568 175.860715 -0.985834 91.980452 -4.644320 -3.825694 2.365409 4.225206 -8.621402 -6.501705 2.845670 12.813773 -0.046468 nan nan nan -0.818274 0.164816 -0.162016 0.997389 1.080932 -5.217624 7.217019 -7.621865 2.506334 nan nan nan -1.826003 2.633463 1.240278 3.075432 -3.132302 1.353807 -0.532412 0.931299 4.073688 -9.136600 -2.754057 39.135721 5.940253 3.709653 10.868399 -15.850999 2.316413 -1.622485 -68.286511 -8.718890 22.910574 5.328631 -16.098101 -2.922085 -4.801534 -21.723024 -29.179668 15.941972 -2.087228 -7.396891 64.651900 4.500066 19.101856 -5.944489 23.693499 8.240528 11.332723 7.203560 -1.250162 
-25.940521 23.361483 95.610161 175.867400 -1.015750 91.977709 -4.693025 -3.807666 2.369959 4.261079 -8.640070 -6.505043 2.877671 12.812644 -0.060565 nan nan nan -0.853863 0.161536 -0.151077 1.020865 1.078641 -5.220497 7.204662 -7.630710 2.480559 nan nan nan -1.850293 2.607183 1.211397 3.061468 -3.108442 1.355469 -0.554246 0.886891 4.089473 -9.194423 -2.817198 39.252710 5.841327 3.598843 11.325377 -15.767868 2.392790 -1.537347 -68.337357 -8.714591 22.889406 5.396773 -16.130847 -2.911013 -4.993214 -21.702871 -29.163646 15.914713 -2.103420 -7.299519 64.713999 4.509548 19.139099 -6.010755 23.707883 8.215664 11.465458 7.110333 -1.261214 
-25.930418 23.371508 95.599358 175.895014 -1.033787 91.873362 -4.685971 -3.752755 2.504235 4.219693 -8.705329 -6.549323 2.914694 12.818038 -0.064720 nan nan nan -0.855760 0.134785 -0.017176 1.012029 1.134682 -5.242582 7.192191 -7.644452 2.461942 nan nan nan -1.939611 2.599702 1.263934 3.077004 -3.072647 1.414281 -0.568922 0.931916 4.111590 -9.040688 -2.949751 39.302801 5.838914 3.488261 11.808080 -15.584476 2.455077 -1.462004 -68.507222 -8.833877 23.001621 5.459643 -16.070867 -2.735780 -4.852419 -21.637037 -29.243756 15.957069 -2.222480 -7.349564 64.728896 4.451153 19.210074 -6.054174 23.723885 8.278877 11.417983 7.098361 -1.346066 
-25.917660 23.377178 95.593117 175.935940 -1.049114 91.829046 -4.651014 -3.719848 2.550081 4.142114 -8.769465 -6.570020 2.920476 12.823539 0.002572 nan nan nan -0.830418 0.102948 0.031194 0.969285 1.170516 -5.235000 7.220987 -7.699660 2.446911 nan nan nan -1.945091 2.564398 1.285268 3.058066 -3.072903 1.385166 -0.595487 0.937829 4.168909 -9.030648 -2.967656 39.424257 5.803353 3.425298 12.203113 -15.579782 2.521362 -1.439364 -68.446846 -8.856430 22.963275 5.396357 -16.070346 -2.420917 -4.698449 -21.589552 -29.183648 15.997415 -2.257202 -7.280147 64.758441 4.545253 19.152832 -6.024549 23.621554 8.291133 11.230498 7.148236 -1.291776 
-25.924639 23.410347 95.571655 175.931338 -1.061655 91.695087 -4.661296 -3.640838 2.750263 4.123198 -8.826655 -6.653927 2.912528 12.838632 0.018196 nan nan nan -0.841725 0.032112 0.213979 0.958526 1.307828 -5.280262 7.200069 -7.744384 2.421192 nan nan nan -1.890963 2.557000 1.324801 3.008386 -3.053677 1.351310 -0.650275 0.988002 4.350928 -9.034390 -3.043894 39.527929 5.713629 3.342133 12.546922 -15.502098 2.506943 -1.391108 -68.517291 -8.965944 22.852858 5.442033 -16.021215 -2.320385 -4.856471 -21.484942 -29.060802 15.979965 -2.308688 -7.231247 64.864294 4.644594 19.003181 -6.046515 23.525556 8.302850 11.382370 6.987279 -1.118044 
-25.925283 23.484640 95.540649 175.832756 -0.972277 91.393157 -4.572087 -3.330696 3.226639 4.131378 -8.921109 -6.876775 2.921914 12.840646 0.025323 nan nan nan -0.722888 -0.004777 0.650803 0.914019 1.523239 -5.431061 7.155096 -7.807922 2.397628 nan nan nan -1.638480 2.522106 1.593475 2.969991 -2.981028 1.199730 -0.716217 0.913190 4.595813 -9.126914 -2.892836 39.615373 5.495649 3.297547 12.729769 -15.551401 2.763530 -1.491064 -68.485497 -8.909851 22.719648 5.423365 -16.140584 -2.060880 -5.280504 -21.434257 -29.100566 15.741370 -2.362094 -7.082082 65.117472 4.857497 19.015003 -5.985747 23.459607 8.382448 11.653036 6.772197 -1.434434 
-25.928587 23.400198 95.563484 175.878494 -1.029718 91.657228 -4.606775 -3.557130 2.762776 4.062747 -8.780386 -6.654720 2.965421 12.865830 0.072986 nan nan nan -0.791772 0.075054 0.191722 0.951626 1.401092 -5.218283 7.122023 -7.793983 2.391621 nan nan nan -1.812250 2.569217 1.446767 3.002732 -3.013341 1.235766 -0.721389 0.945528 4.348443 -9.081843 -2.922739 39.777978 5.681783 3.321404 13.105845 -15.444206 2.865140 -1.416468 -68.592939 -8.971422 22.954735 5.441783 -16.073762 -2.060144 -5.253577 -21.396704 -29.379637 15.863306 -2.544220 -7.128656 65.012311 4.735096 19.183900 -5.910864 23.500840 8.139982 11.596184 6.824961 -2.054573 
-25.930317 23.322008 95.587944 175.836975 -1.036504 91.910984 -4.601295 -3.744635 2.377078 4.058061 -8.636937 -6.526647 3.017156 12.910370 0.113140 nan nan nan -0.781591 0.215217 -0.271785 0.930746 1.274871 -4.977671 7.094677 -7.751756 2.392399 nan nan nan -1.956284 2.605011 1.166387 3.061381 -3.041275 1.488572 -0.740732 1.083154 4.056848 -9.008057 -3.017851 39.911503 5.811879 3.324148 13.461323 -15.318889 2.891819 -1.270466 -68.758300 -9.075097 23.124513 5.551808 -16.046728 -2.191584 -5.102142 -21.226577 -29.442397 16.011167 -2.695978 -7.157276 64.861530 4.611960 19.327108 -5.886097 23.597902 8.127191 11.457982 6.819453 -2.280686 
